HIERARCHY
ROOT Hips
{
	OFFSET 0.000000 0.000000 0.000000
	CHANNELS 6 Xposition Yposition Zposition Xrotation Yrotation Zrotation
	JOINT LeftUpLeg_virtual
	{
		OFFSET 0.000000 0.000000 0.000000
		CHANNELS 3 Xrotation Yrotation Zrotation
		JOINT LeftUpLeg
		{
			OFFSET 13.026900 -6.336304 -1.092800
			CHANNELS 3 Xrotation Yrotation Zrotation
			JOINT LeftLeg
			{
				OFFSET 0.524474 -46.096886 9.782700
				CHANNELS 3 Xrotation Yrotation Zrotation
				JOINT LeftFoot
				{
					OFFSET -0.524474 -53.427422 -12.948200
					CHANNELS 3 Xrotation Yrotation Zrotation
					JOINT LeftToeBase
					{
						OFFSET 0.192200 -14.009700 16.364100
						CHANNELS 3 Xrotation Yrotation Zrotation
						JOINT LeftToe_End
						{
							OFFSET -1.784700 -0.561700 9.474800
							CHANNELS 3 Xrotation Yrotation Zrotation
							End Site
							{
								OFFSET 0 0 0
							}
						}
					}
				}
			}
		}
	}
	JOINT RightUpLeg_virtual
	{
		OFFSET 0.000000 0.000000 0.000000
		CHANNELS 3 Xrotation Yrotation Zrotation
		JOINT RightUpLeg
		{
			OFFSET -12.883000 -6.336304 -1.092800
			CHANNELS 3 Xrotation Yrotation Zrotation
			JOINT RightLeg
			{
				OFFSET -0.524587 -46.096825 9.782800
				CHANNELS 3 Xrotation Yrotation Zrotation
				JOINT RightFoot
				{
					OFFSET 0.524587 -53.427383 -12.948300
					CHANNELS 3 Xrotation Yrotation Zrotation
					JOINT RightToeBase
					{
						OFFSET -0.192200 -14.009700 16.364100
						CHANNELS 3 Xrotation Yrotation Zrotation
						JOINT RightToe_End
						{
							OFFSET 1.784700 -0.561700 9.474800
							CHANNELS 3 Xrotation Yrotation Zrotation
							End Site
							{
								OFFSET 0 0 0
							}
						}
					}
				}
			}
		}
	}
	JOINT Spine_virtual
	{
		OFFSET 0.000000 0.000000 0.000000
		CHANNELS 3 Xrotation Yrotation Zrotation
		JOINT Spine
		{
			OFFSET 0.072000 7.257294 -0.789700
			CHANNELS 3 Xrotation Yrotation Zrotation
			JOINT Spine1
			{
				OFFSET 0.000000 12.508769 -0.658067
				CHANNELS 3 Xrotation Yrotation Zrotation
				JOINT Spine1_split
				{
					OFFSET 0.000000 12.508769 -0.658067
					CHANNELS 3 Xrotation Yrotation Zrotation
					JOINT Spine2
					{
						OFFSET 0.000000 12.508769 -0.658067
						CHANNELS 3 Xrotation Yrotation Zrotation
						JOINT Neck_virtual
						{
							OFFSET 0.000000 0.000000 0.000000
							CHANNELS 3 Xrotation Yrotation Zrotation
							JOINT Neck
							{
								OFFSET 0.000000 14.033295 7.520400
								CHANNELS 3 Xrotation Yrotation Zrotation
								JOINT Head
								{
									OFFSET 0.000000 8.198502 5.703100
									CHANNELS 3 Xrotation Yrotation Zrotation
									JOINT HeadTop_End
									{
										OFFSET 0.000000 17.760803 13.332701
										CHANNELS 3 Xrotation Yrotation Zrotation
										End Site
										{
											OFFSET 0 0 0
										}
									}
								}
							}
						}
						JOINT LeftShoulder_virtual
						{
							OFFSET 0.000000 0.000000 0.000000
							CHANNELS 3 Xrotation Yrotation Zrotation
							JOINT LeftShoulder
							{
								OFFSET 6.292450 5.785301 -0.669000
								CHANNELS 3 Xrotation Yrotation Zrotation
								JOINT LeftShoulder_split
								{
									OFFSET 6.292450 5.785301 -0.669000
									CHANNELS 3 Xrotation Yrotation Zrotation
									JOINT LeftArm
									{
										OFFSET 13.907140 -6.093903 1.965100
										CHANNELS 3 Xrotation Yrotation Zrotation
										JOINT LeftForeArm
										{
											OFFSET 34.140198 0.000000 0.000000
											CHANNELS 3 Xrotation Yrotation Zrotation
											JOINT LeftHand
											{
												OFFSET 40.960209 0.000000 0.000000
												CHANNELS 3 Xrotation Yrotation Zrotation
												End Site
												{
													OFFSET 0 0 0
												}
											}
										}
									}
								}
							}
						}
						JOINT RightShoulder_virtual
						{
							OFFSET 0.000000 0.000000 0.000000
							CHANNELS 3 Xrotation Yrotation Zrotation
							JOINT RightShoulder
							{
								OFFSET -6.292450 5.785301 -0.669000
								CHANNELS 3 Xrotation Yrotation Zrotation
								JOINT RightShoulder_split
								{
									OFFSET -6.292450 5.785301 -0.669000
									CHANNELS 3 Xrotation Yrotation Zrotation
									JOINT RightArm
									{
										OFFSET -13.907140 -6.093903 1.965100
										CHANNELS 3 Xrotation Yrotation Zrotation
										JOINT RightForeArm
										{
											OFFSET -34.140198 0.000000 0.000000
											CHANNELS 3 Xrotation Yrotation Zrotation
											JOINT RightHand
											{
												OFFSET -40.960209 0.000000 0.000000
												CHANNELS 3 Xrotation Yrotation Zrotation
												End Site
												{
													OFFSET 0 0 0
												}
											}
										}
									}
								}
							}
						}
					}
				}
			}
		}
	}
}
MOTION
Frames: 10
Frame Time: 0.03333333
4.888340 118.602142 -8.808428 0.000000 0.000000 0.000000 -3.183066 0.154147 1.495866 -7.993834 12.205399 6.390429 13.605471 4.843308 2.839680 -3.115305 8.314890 -13.361361 3.561286 -4.260452 0.250258 0.000000 0.000000 0.000000 -3.116397 0.165443 1.546994 -3.542514 -12.813735 -3.434214 14.247141 -1.843943 -1.639541 -9.993179 -12.251570 10.733321 2.056549 3.108832 -5.030525 0.000000 0.000000 0.000000 -3.586236 2.446365 1.533514 1.409195 0.881326 -1.411459 0.131442 -1.027566 0.330556 0.122521 -0.304719 -0.017984 0.000000 0.000000 0.000000 0.906697 1.211062 -0.202210 1.946871 4.250853 3.250866 0.852620 -14.530782 -10.035747 0.000000 0.000000 0.000000 -0.407101 -0.328433 -0.349733 1.924031 -8.297137 -11.723316 0.251402 -2.210021 -3.478689 -3.208521 -3.481216 -58.630398 2.632259 -19.157166 -3.374079 0.000000 0.000000 0.000000 0.397779 -0.164395 0.070221 3.012418 -3.459375 14.321846 -5.945536 -0.568245 0.371384 2.840714 5.391982 64.290747 -4.217534 18.047984 4.586825 0.000000 0.000000 0.000000 
4.930205 118.637314 -9.067240 0.000000 0.000000 0.000000 -3.283909 0.176015 1.514656 -8.167563 12.190995 6.407688 13.640940 4.860126 2.849911 -2.958562 8.152691 -13.399866 3.581367 -4.237014 0.209023 0.000000 0.000000 0.000000 -3.217273 0.244751 1.564136 -3.376149 -12.751966 -3.410600 14.116418 -1.856909 -1.648089 -9.938630 -12.302963 10.737494 2.227679 3.085682 -5.018061 0.000000 0.000000 0.000000 -3.712829 2.625484 1.606187 1.516905 0.985358 -1.331697 0.190594 -0.968735 0.299604 0.133138 -0.256908 0.001300 0.000000 0.000000 0.000000 0.842373 1.243391 -0.202111 1.929190 4.174084 3.307047 0.749822 -14.750220 -9.916927 0.000000 0.000000 0.000000 -0.401802 -0.269969 -0.408185 1.897043 -8.035696 -11.874031 0.107696 -1.698837 -3.696616 -2.250737 -2.725099 -58.466105 2.721890 -18.172686 -3.308722 0.000000 0.000000 0.000000 0.429245 -0.087652 0.021498 2.921292 -3.218232 14.240764 -6.152481 0.036356 0.274482 1.980565 5.890647 64.288500 -4.176951 18.833449 4.433919 0.000000 0.000000 0.000000 
4.908018 118.606308 -9.401175 0.000000 0.000000 0.000000 -3.480875 0.505966 1.643966 -8.521369 12.135616 6.375190 13.906852 4.876242 2.825018 -2.854515 7.818932 -13.228384 3.690647 -4.209164 0.216970 0.000000 0.000000 0.000000 -3.413497 0.676405 1.678260 -3.158846 -12.633247 -3.411594 14.310318 -1.912447 -1.635835 -10.043295 -12.529418 10.730644 2.242015 3.055355 -5.063796 0.000000 0.000000 0.000000 -4.003814 3.050552 1.736767 1.798953 1.129956 -1.189428 0.234055 -0.862002 0.238886 0.143799 -0.253999 0.011630 0.000000 0.000000 0.000000 0.766292 1.327260 -0.232166 1.887910 4.087624 3.403010 0.549265 -15.265060 -9.804991 0.000000 0.000000 0.000000 -0.390354 -0.170352 -0.504485 1.880692 -7.757095 -11.958099 -0.133284 -1.449756 -3.650500 -0.954844 -1.410821 -58.456898 2.735768 -16.921068 -3.270090 0.000000 0.000000 0.000000 0.467761 0.044333 -0.057215 2.804634 -2.793792 14.137271 -6.004188 0.111185 0.318856 0.722977 6.901223 64.204639 -4.054114 19.895351 4.207706 0.000000 0.000000 0.000000 
4.827998 118.525673 -9.752878 0.000000 0.000000 0.000000 -3.734694 1.087677 1.852259 -8.977292 12.046492 6.291120 14.378078 4.871353 2.782458 -2.833739 7.349879 -12.891171 3.905858 -4.177198 0.271488 0.000000 0.000000 0.000000 -3.682354 1.365914 1.872810 -2.883985 -12.453860 -3.427581 14.706053 -2.006945 -1.614221 -10.360249 -12.919370 10.670911 2.170809 3.018762 -5.157366 0.000000 0.000000 0.000000 -4.410525 3.647986 1.909205 2.194910 1.288783 -1.029962 0.255351 -0.726074 0.164234 0.152080 -0.276293 0.005829 0.000000 0.000000 0.000000 0.702931 1.447971 -0.280481 1.816025 4.007201 3.509403 0.267873 -16.005100 -9.733635 0.000000 0.000000 0.000000 -0.377019 -0.042995 -0.609761 1.889286 -7.466730 -11.942243 -0.285674 -1.502049 -3.429531 0.430370 0.237224 -58.567274 2.679286 -15.791816 -3.249269 0.000000 0.000000 0.000000 0.507518 0.207418 -0.140392 2.674823 -2.265536 14.059385 -5.587219 -0.257171 0.516310 -0.639552 8.091663 64.079250 -3.859281 21.065806 3.947465 0.000000 0.000000 0.000000 
4.730927 118.408936 -10.130213 0.000000 0.000000 0.000000 -4.012762 1.820574 2.095695 -9.469993 11.944210 6.181692 14.981456 4.826621 2.741545 -2.894907 6.782231 -12.486058 4.204588 -4.136971 0.367103 0.000000 0.000000 0.000000 -3.990261 2.181452 2.106450 -2.584375 -12.218426 -3.431101 15.196722 -2.148209 -1.589161 -10.851851 -13.457297 10.496706 2.150710 2.978190 -5.284376 0.000000 0.000000 0.000000 -4.885720 4.343018 2.112282 2.631737 1.429393 -0.896191 0.253314 -0.577390 0.093501 0.159060 -0.297303 0.004510 0.000000 0.000000 0.000000 0.668314 1.592209 -0.324850 1.712747 3.938387 3.597683 -0.054395 -16.869775 -9.737150 0.000000 0.000000 0.000000 -0.372169 0.103006 -0.701848 1.926634 -7.152818 -11.862272 -0.288415 -1.611963 -3.126374 1.778795 2.082882 -58.823235 2.581676 -14.877919 -3.245382 0.000000 0.000000 0.000000 0.540582 0.379186 -0.204701 2.567858 -1.700411 14.028366 -5.066560 -0.667948 0.705683 -1.910454 9.173100 63.978764 -3.644577 22.312561 3.727289 0.000000 0.000000 0.000000 
4.633183 118.275932 -10.467909 0.000000 0.000000 0.000000 -4.287195 2.567009 2.333095 -9.883342 11.855201 6.058676 15.602041 4.758425 2.713284 -3.055795 6.190770 -12.054304 4.526522 -4.088469 0.499499 0.000000 0.000000 0.000000 -4.297541 3.002884 2.340482 -2.315361 -11.958212 -3.412755 15.697598 -2.321706 -1.554925 -11.364610 -14.098427 10.238930 2.231345 2.939312 -5.427294 0.000000 0.000000 0.000000 -5.349501 5.063842 2.322288 3.040454 1.526102 -0.817335 0.222070 -0.430320 0.047880 0.170740 -0.318808 -0.004872 0.000000 0.000000 0.000000 0.645224 1.746603 -0.343499 1.572425 3.887658 3.646623 -0.368976 -17.787766 -9.824911 0.000000 0.000000 0.000000 -0.381762 0.255271 -0.752752 1.987581 -6.804042 -11.713488 -0.249512 -1.718866 -2.912044 3.018120 3.875728 -59.197250 2.449879 -14.148517 -3.248228 0.000000 0.000000 0.000000 0.562206 0.542307 -0.231869 2.505649 -1.158157 14.042085 -4.531789 -0.893660 0.863545 -2.957303 9.952755 63.934935 -3.465811 23.607588 3.614678 0.000000 0.000000 0.000000 
4.541505 118.162331 -10.762571 0.000000 0.000000 0.000000 -4.544733 3.226739 2.530295 -10.188941 11.783381 5.933685 16.165898 4.684371 2.706759 -3.301392 5.629690 -11.640254 4.845308 -4.026653 0.650395 0.000000 0.000000 0.000000 -4.583151 3.742408 2.544959 -2.124832 -11.707118 -3.367977 16.177421 -2.508798 -1.516307 -11.739400 -14.798976 9.981230 2.341319 2.910602 -5.574149 0.000000 0.000000 0.000000 -5.766158 5.771798 2.520111 3.389022 1.572554 -0.800135 0.167846 -0.291840 0.038156 0.182140 -0.330266 -0.002570 0.000000 0.000000 0.000000 0.629892 1.896453 -0.322429 1.393554 3.852341 3.646211 -0.639625 -18.722402 -9.995861 0.000000 0.000000 0.000000 -0.402251 0.401942 -0.754667 2.055932 -6.433257 -11.524460 -0.216423 -1.776221 -2.847603 4.192897 5.479498 -59.631069 2.316826 -13.533981 -3.212802 0.000000 0.000000 0.000000 0.561997 0.687820 -0.222029 2.467990 -0.653871 14.057362 -4.030115 -0.886402 0.981032 -3.820004 10.354853 63.955275 -3.361130 24.928731 3.626761 0.000000 0.000000 0.000000 
4.466171 118.068451 -11.027071 0.000000 0.000000 0.000000 -4.784352 3.746083 2.681531 -10.380767 11.728529 5.832902 16.646426 4.621316 2.714761 -3.617912 5.138535 -11.263731 5.147156 -3.948209 0.797185 0.000000 0.000000 0.000000 -4.833850 4.334287 2.698851 -2.031711 -11.474689 -3.295723 16.586175 -2.686423 -1.486867 -11.914457 -15.513921 9.779250 2.398494 2.894471 -5.712256 0.000000 0.000000 0.000000 -6.103223 6.405508 2.692152 3.662242 1.579594 -0.834806 0.107456 -0.165063 0.062211 0.180844 -0.328869 0.008016 0.000000 0.000000 0.000000 0.599392 2.032086 -0.264278 1.183928 3.832024 3.592216 -0.848170 -19.602549 -10.221678 0.000000 0.000000 0.000000 -0.422730 0.536830 -0.717242 2.117947 -6.076902 -11.302033 -0.181053 -1.732618 -2.959061 5.293835 6.827877 -60.117351 2.180239 -12.991220 -3.109058 0.000000 0.000000 0.000000 0.545191 0.819425 -0.183142 2.459315 -0.204136 14.029682 -3.664157 -0.727157 1.102278 -4.492112 10.537472 63.992800 -3.361939 26.216520 3.785164 0.000000 0.000000 0.000000 
4.419620 117.998764 -11.283743 0.000000 0.000000 0.000000 -5.002852 4.124558 2.791949 -10.472874 11.676120 5.758197 17.050461 4.575823 2.732186 -3.972060 4.750144 -10.930539 5.423841 -3.858743 0.928713 0.000000 0.000000 0.000000 -5.048738 4.752090 2.800337 -2.010929 -11.283490 -3.210423 16.902903 -2.840379 -1.471011 -11.931289 -16.191756 9.636541 2.408029 2.890384 -5.830559 0.000000 0.000000 0.000000 -6.331600 6.939914 2.839293 3.872461 1.565401 -0.892760 0.044300 -0.056715 0.109514 0.169432 -0.312100 0.010388 0.000000 0.000000 0.000000 0.531822 2.142481 -0.185274 0.935886 3.827887 3.493277 -0.992997 -20.377919 -10.466323 0.000000 0.000000 0.000000 -0.436760 0.650593 -0.654425 2.161416 -5.766468 -11.049762 -0.115053 -1.627942 -3.169196 6.293306 7.880550 -60.653767 2.048974 -12.553818 -2.913700 0.000000 0.000000 0.000000 0.532202 0.936312 -0.126174 2.469143 0.182281 13.945371 -3.502436 -0.533981 1.299375 -4.959334 10.707551 63.977938 -3.456898 27.399712 4.076748 0.000000 0.000000 0.000000 
4.399537 117.939331 -11.548750 0.000000 0.000000 0.000000 -5.204527 4.402318 2.876930 -10.536716 11.595692 5.695848 17.430971 4.517821 2.759208 -4.306929 4.448215 -10.693471 5.648920 -3.763536 1.038960 0.000000 0.000000 0.000000 -5.233847 5.004194 2.871527 -2.051721 -11.144681 -3.112583 17.205177 -2.975573 -1.464286 -11.923521 -16.801939 9.493484 2.420182 2.897591 -5.915060 0.000000 0.000000 0.000000 -6.484469 7.387489 2.968773 4.067982 1.541149 -0.948263 -0.011518 0.031841 0.161604 0.162429 -0.272700 0.008813 0.000000 0.000000 0.000000 0.444817 2.224532 -0.105504 0.664678 3.837828 3.371558 -1.068474 -20.997007 -10.691903 0.000000 0.000000 0.000000 -0.438019 0.738437 -0.588157 2.182817 -5.523098 -10.786980 0.014674 -1.461087 -3.284624 7.242970 8.646051 -61.268170 1.955192 -12.338925 -2.637204 0.000000 0.000000 0.000000 0.538294 1.033296 -0.070874 2.485040 0.510440 13.802853 -3.415184 -0.354658 1.496979 -5.210038 11.023224 63.854216 -3.641627 28.511149 4.474130 0.000000 0.000000 0.000000 
